<svg id="icon-superellipse" viewBox="0 0 240 64" preserveAspectRatio="none"><path fill="currentColor" d="M53.3955932,64 C17.0079396,64 10.7479546,57.8352637 7.00797992,54.1497734 L7.00797992,54.1497734 L6.72002743,53.8666283 C2.47059832,49.7069276 1.0658141e-13,42.5523344 1.0658141e-13,31.997698 C1.0658141e-13,21.4453636 2.47059832,14.2930724 6.72002743,10.1310697 L6.72002743,10.1310697 L7.00968378,9.84562262 C10.7496585,6.16473635 17.0079396,0 53.3955932,0 L53.3955932,0 L186.604407,0 C222.99206,0 229.250342,6.16473635 232.990316,9.84562262 L233.279973,10.1310697 C237.529402,14.2930724 240,21.4453636 240,31.997698 C240,42.5523344 237.529402,49.7069276 233.279973,53.8666283 L232.99202,54.1497734 C229.252045,57.8352637 222.99206,64 186.604407,64 Z"></path></svg>